<?xml version="1.0" encoding="UTF-8"?>
<svg width="744px" height="81px" viewBox="0 0 744 81" version="1.1" xmlns="http://www.w3.org/2000/svg" xmlns:xlink="http://www.w3.org/1999/xlink">
    <title>Group</title>
    <g id="Page-1" stroke="none" stroke-width="1" fill="none" fill-rule="evenodd">
        <g id="A4-Copy" transform="translate(-8.000000, -60.000000)">
            <g id="Group" transform="translate(8.000000, 60.000000)">
                <path d="M239.814039,27.6215429 L239.814039,73 L224.330802,73 L224.330802,27.6215429 L200,27.6215429 L200,15 L264.186575,15 L264.186575,27.6215429 L239.814039,27.6215429 Z M274.411354,73 L274.411354,15 L332.463061,15 L332.463061,27.3682678 L290.311929,27.3682678 L290.311929,36.9505095 L330.292904,36.9505095 L330.292904,49.3187773 L290.311929,49.3187773 L290.311929,60.6317322 L333.047334,60.6317322 L333.047334,73 L274.411354,73 Z M402.158496,73 L363.47127,33.1513828 L363.47127,73 L347.988032,73 L347.988032,15 L364.806751,15 L403.535712,55.0174672 L403.535712,15 L418.935481,15 L418.935481,73 L402.158496,73 Z M507.118987,43.9577875 C507.118987,47.6725077 506.715565,50.9720865 505.908707,53.856623 C505.10185,56.7411595 503.968093,59.2527792 502.507403,61.3915575 C501.046713,63.5303358 499.293911,65.3454559 497.248945,66.8369723 C495.203979,68.3284888 492.92951,69.5244982 490.42547,70.4250364 C487.92143,71.3255746 485.222671,71.9798621 482.329114,72.3879185 C479.435556,72.7959749 476.416842,73 473.272881,73 L436.881013,73 L436.881013,15 L473.189413,15 C476.333375,15 479.352089,15.2040251 482.245646,15.6120815 C485.139204,16.0201379 487.844918,16.6744254 490.362869,17.5749636 C492.880821,18.4755018 495.169201,19.6644759 497.228078,21.1419214 C499.286956,22.6193669 501.046713,24.4344871 502.507403,26.5873362 C503.968093,28.7401854 505.10185,31.2518052 505.908707,34.1222707 C506.715565,36.9927363 507.118987,40.2712091 507.118987,43.9577875 Z M491.510549,43.9577875 C491.510549,41.1717474 491.155815,38.7515872 490.446337,36.6972344 C489.736859,34.6428815 488.596146,32.9473623 487.024166,31.6106259 C485.452185,30.2738895 483.400294,29.2748699 480.868431,28.6135371 C478.336568,27.9522044 475.248298,27.6215429 471.603529,27.6215429 L452.36425,27.6215429 L452.36425,60.3784571 L471.603529,60.3784571 C475.248298,60.3784571 478.336568,60.0477956 480.868431,59.3864629 C483.400294,58.7251301 485.452185,57.7120398 487.024166,56.3471616 C488.596146,54.9822833 489.736859,53.2726934 490.446337,51.2183406 C491.155815,49.1639878 491.510549,46.7438276 491.510549,43.9577875 Z M521.22501,73 L521.22501,15 L579.276717,15 L579.276717,27.3682678 L537.125585,27.3682678 L537.125585,36.9505095 L577.106559,36.9505095 L577.106559,49.3187773 L537.125585,49.3187773 L537.125585,60.6317322 L579.86099,60.6317322 L579.86099,73 L521.22501,73 Z M610.284925,73 L594.801688,73 L594.801688,15 L633.614116,15 C637.787516,15 641.327897,15.4361917 644.235366,16.3085881 C647.142835,17.1809845 649.507726,18.419206 651.330111,20.0232897 C653.152496,21.6273734 654.474053,23.5620944 655.294822,25.8275109 C656.11559,28.0929274 656.525969,30.6186178 656.525969,33.4046579 C656.525969,35.8529962 656.185146,37.9917424 655.503491,39.8209607 C654.821835,41.650179 653.903701,43.2190619 652.74906,44.5276565 C651.594419,45.8362511 650.251996,46.9408009 648.721749,47.8413392 C647.191502,48.7418774 645.577812,49.4876244 643.880629,50.0786026 L662.660836,73 L644.54837,73 L627.187112,51.6404658 L610.284925,51.6404658 L610.284925,73 Z M640.875796,33.3202329 C640.875796,32.1945601 640.729729,31.2377526 640.437591,30.4497817 C640.145453,29.6618107 639.637697,29.0215939 638.914308,28.5291121 C638.190918,28.0366302 637.224095,27.6778274 636.013809,27.4526929 C634.803523,27.2275583 633.294166,27.1149927 631.485692,27.1149927 L610.284925,27.1149927 L610.284925,39.5254731 L631.485692,39.5254731 C633.294166,39.5254731 634.803523,39.4129075 636.013809,39.1877729 C637.224095,38.9626384 638.190918,38.6038356 638.914308,38.1113537 C639.637697,37.6188719 640.145453,36.9786551 640.437591,36.1906841 C640.729729,35.4027132 640.875796,34.4459057 640.875796,33.3202329 Z M744,43.9577875 C744,47.6725077 743.596577,50.9720865 742.78972,53.856623 C741.982863,56.7411595 740.849106,59.2527792 739.388416,61.3915575 C737.927726,63.5303358 736.174924,65.3454559 734.129958,66.8369723 C732.084992,68.3284888 729.810523,69.5244982 727.306483,70.4250364 C724.802442,71.3255746 722.103684,71.9798621 719.210127,72.3879185 C716.316569,72.7959749 713.297855,73 710.153893,73 L673.762025,73 L673.762025,15 L710.070426,15 C713.214387,15 716.233102,15.2040251 719.126659,15.6120815 C722.020216,16.0201379 724.72593,16.6744254 727.243882,17.5749636 C729.761833,18.4755018 732.050213,19.6644759 734.109091,21.1419214 C736.167968,22.6193669 737.927726,24.4344871 739.388416,26.5873362 C740.849106,28.7401854 741.982863,31.2518052 742.78972,34.1222707 C743.596577,36.9927363 744,40.2712091 744,43.9577875 Z M728.391561,43.9577875 C728.391561,41.1717474 728.036827,38.7515872 727.327349,36.6972344 C726.617871,34.6428815 725.477159,32.9473623 723.905178,31.6106259 C722.333198,30.2738895 720.281307,29.2748699 717.749444,28.6135371 C715.217581,27.9522044 712.129311,27.6215429 708.484542,27.6215429 L689.245263,27.6215429 L689.245263,60.3784571 L708.484542,60.3784571 C712.129311,60.3784571 715.217581,60.0477956 717.749444,59.3864629 C720.281307,58.7251301 722.333198,57.7120398 723.905178,56.3471616 C725.477159,54.9822833 726.617871,53.2726934 727.327349,51.2183406 C728.036827,49.1639878 728.391561,46.7438276 728.391561,43.9577875 Z" id="TENDERD" fill="#000000"></path>
                <g id="Logo" fill="#FF9500" fill-rule="nonzero">
                    <path d="M15.8127177,49.0764706 L114.850266,49.0764706 C123.583388,49.0764706 130.662983,56.2227963 130.662983,65.0382353 C130.662983,73.8536743 123.583388,81 114.850266,81 L15.8127177,81 C7.07959488,81 0,73.8536743 0,65.0382353 C0,56.2227963 7.07959488,49.0764706 15.8127177,49.0764706 Z M21.3519462,76.2468377 C27.0974218,76.2468377 31.75505,71.5453078 31.75505,65.7456767 C31.75505,59.9460455 27.0974218,55.2445157 21.3519462,55.2445157 C15.6064706,55.2445157 10.9488424,59.9460455 10.9488424,65.7456767 C10.9488424,71.5453078 15.6064706,76.2468377 21.3519462,76.2468377 Z M51.570708,76.2468377 C57.3161832,76.2468377 61.9738117,71.5453078 61.9738117,65.7456767 C61.9738117,59.9460455 57.3161832,55.2445157 51.570708,55.2445157 C45.8252323,55.2445157 41.167604,59.9460455 41.167604,65.7456767 C41.167604,71.5453078 45.8252323,76.2468377 51.570708,76.2468377 Z M110.828322,76.2468377 C116.573797,76.2468377 121.231426,71.5453078 121.231426,65.7456767 C121.231426,59.9460455 116.573797,55.2445157 110.828322,55.2445157 C105.082846,55.2445157 100.425218,59.9460455 100.425218,65.7456767 C100.425218,71.5453078 105.082846,76.2468377 110.828322,76.2468377 Z M81.1995148,76.2468377 C86.9449905,76.2468377 91.6026186,71.5453078 91.6026186,65.7456767 C91.6026186,59.9460455 86.9449905,55.2445157 81.1995148,55.2445157 C75.4540392,55.2445157 70.7964111,59.9460455 70.7964111,65.7456767 C70.7964111,71.5453078 75.4540392,76.2468377 81.1995148,76.2468377 Z" id="Combined-Shape"></path>
                    <path d="M136.588514,42.3880545 L121.618862,42.3880545 L121.618862,46.4765282 C119.697023,45.685992 117.592256,45.2500575 115.385794,45.2500575 L14.8809552,45.2500575 C11.9024429,45.2500575 9.10924312,46.0444358 6.70117724,47.4331294 C6.66863354,47.1333802 6.6519337,46.8288686 6.6519337,46.5204523 L6.6519337,36.8914584 C6.6519337,32.279596 10.3860632,28.5409429 14.9923454,28.5409429 L16.0337446,28.5409429 C16.0331929,28.5146358 16.0329157,28.4882611 16.0329157,28.4618215 L16.0329157,3.69698741 C16.0329157,1.65519764 17.6861106,0 19.7254299,0 L61.6404558,0 C63.1981027,0 64.5304839,0.971227732 65.0729851,2.34511632 C65.2632208,2.66563435 65.4078748,3.02064218 65.4961276,3.40337087 L71.0530369,27.5021486 C71.1335449,27.8512883 71.1617667,28.2002943 71.1428348,28.5409429 L113.278451,28.5409429 C117.232868,28.5409429 120.544514,31.296308 121.402624,34.9940796 L136.588514,34.9940796 L136.588514,12.5237011 C136.588514,11.6013286 137.33534,10.853598 138.256596,10.853598 L142.349917,10.853598 C143.251151,10.853598 143.989423,11.5703158 144.017206,12.4722132 C144.658784,33.2966072 148.250775,48.4831057 154.793181,58.0317089 C160.403998,66.2206636 165.964909,72.9149065 171.475913,78.1144372 C171.810386,78.4300061 172,78.8697585 172,79.3298969 C172,80.2522669 171.253176,81 170.331922,81 L138.256596,81 C137.33534,81 136.588514,80.2522694 136.588514,79.3298969 L136.588514,42.3880545 Z M63.7132866,28.5409429 L58.8468891,7.43672457 L23.4179441,7.43672457 L23.4179441,28.4618215 C23.4179441,28.4882611 23.4176669,28.5146358 23.4171152,28.5409429 L63.7132866,28.5409429 Z" id="Combined-Shape"></path>
                </g>
            </g>
        </g>
    </g>
</svg>